<svg width="508" height="581" viewBox="0 0 508 581" fill="transparent" xmlns="http://www.w3.org/2000/svg">
<path d="M477.91 26.0688C446.854 14.0323 415.481 26.841 403.3 56.5236C401.598 60.6569 400.419 64.9265 399.738 69.1734C399.965 55.2972 399.92 43.0563 399.783 33.5179V13.737C399.783 12.5107 398.876 11.466 397.651 11.2616C302.647 -3.75007 206.259 -3.75007 111.21 11.2389C110.03 11.4205 109.146 12.4198 109.077 13.6235C109.077 13.9414 108.079 38.3779 108.692 72.1712C108.147 66.925 106.832 61.6562 104.745 56.5463C92.5856 26.841 61.2125 14.0323 30.157 26.0688C-8.33917 40.9669 -0.308741 94.9498 3.0713 111.142C10.1036 144.799 30.9509 175.277 68.6758 207.094C72.2146 210.069 75.8669 213.044 79.8367 216.178C82.7404 218.472 85.7121 220.652 89.0014 223.037C99.9582 231.008 110.325 238.548 115.18 250.267C118.129 257.353 117.562 265.846 113.66 273C109.055 281.471 100.026 285.332 91.7009 282.402C86.5741 280.585 76.1391 274.09 78.6118 266.528C79.383 264.143 79.2016 261.622 78.0446 259.397C76.9104 257.171 74.9595 255.513 72.6003 254.741C70.2184 253.969 67.7004 254.15 65.4546 255.286C63.2088 256.421 61.5301 258.352 60.7588 260.736C54.9288 278.564 69.1295 294.303 85.4399 300.026C89.3644 301.411 93.4249 302.115 97.5082 302.115C111.074 302.115 123.278 294.552 130.152 281.903C135.755 271.615 137.207 259.556 134.348 248.632C135.732 251.789 137.139 254.786 138.613 257.534C161.026 299.208 197.979 330.004 226.177 349.08C224.679 350.67 223.772 352.782 223.772 355.076V364.001C223.772 368.838 227.719 372.767 232.574 372.767H235.613V453.526L221.118 478.394H205.034C204.354 478.394 203.719 478.666 203.242 479.143L171.302 511.506C170.848 511.983 170.576 512.596 170.576 513.277V563.49H157.328C155.944 563.49 154.81 564.603 154.81 565.988V578.502C154.81 579.887 155.944 581 157.328 581H351.056C352.44 581 353.574 579.887 353.574 578.502V565.988C353.574 564.603 352.44 563.49 351.056 563.49H337.809V512.755C337.809 512.074 337.536 511.415 337.037 510.961L303.895 479.121C303.418 478.666 302.806 478.417 302.148 478.417H287.267L272.748 453.322V372.767H273.452C278.306 372.767 282.253 368.838 282.253 364.001V355.076C282.253 353.259 281.686 351.533 280.688 350.102C304.779 333.955 345.907 301.842 369.749 257.534C370.974 255.263 372.131 252.833 373.242 250.335C370.974 260.782 372.562 272.137 377.87 281.88C384.766 294.53 396.971 302.092 410.513 302.092C414.597 302.092 418.657 301.388 422.582 300.003C438.892 294.257 453.093 278.542 447.263 260.714C446.492 258.329 444.813 256.399 442.567 255.263C440.321 254.128 437.803 253.946 435.444 254.718C433.062 255.49 431.111 257.148 429.977 259.374C428.843 261.599 428.639 264.143 429.41 266.505C431.882 274.045 421.448 280.563 416.321 282.38C407.995 285.309 398.944 281.448 394.339 272.977C390.437 265.824 389.87 257.33 392.819 250.244C397.696 238.548 408.041 231.008 418.998 223.014C422.31 220.607 425.259 218.45 428.162 216.156C432.155 213.022 435.807 210.047 439.323 207.072C477.048 175.254 497.895 144.754 504.928 111.12C508.308 94.9271 516.338 40.9442 477.865 26.0461L477.91 26.0688ZM99.9128 207.844C97.0545 205.754 94.1962 203.688 91.4967 201.53C87.5723 198.442 84.0788 195.58 80.7895 192.832C56.9024 172.688 40.5239 153.361 30.7468 133.785C25.4612 116.048 24.9395 97.4707 29.2723 81.437C32.0398 71.2173 39.5031 54.0027 58.4223 53.5712C71.1485 53.1625 83.2621 61.8379 86.5741 73.4884C87.0959 75.2825 87.3 77.1902 87.4361 79.5066C87.7311 84.2758 87.3454 88.4092 86.1885 92.7923C82.8992 98.152 77.7044 102.149 71.1258 104.329C66.2258 105.964 63.5717 111.279 65.205 116.161C65.999 118.523 67.6777 120.454 69.9235 121.566C72.1693 122.679 74.71 122.861 77.0919 122.066C89.6366 117.865 99.4364 109.257 104.699 97.834C107.127 92.5425 108.533 86.7513 108.896 80.7784C109.123 89.9535 109.486 99.6509 110.008 109.666C112.957 165.761 119.785 208.957 130.356 238.526C123.051 224.649 110.892 215.792 99.9128 207.798V207.844ZM399.443 83.7535C400.033 88.6817 401.326 93.4509 403.368 97.8794C408.608 109.303 418.43 117.91 430.975 122.112C433.357 122.906 435.898 122.725 438.144 121.612C440.389 120.499 442.068 118.591 442.862 116.207C444.518 111.324 441.864 106.01 436.941 104.352C430.363 102.149 425.168 98.1747 421.879 92.815C420.699 88.4092 420.313 84.2986 420.631 79.5294C420.767 77.2129 420.971 75.3052 421.493 73.5111C424.805 61.8606 436.919 53.2306 449.645 53.5712C468.587 54.0027 476.05 71.2173 478.795 81.437C483.128 97.4707 482.606 116.048 477.32 133.785C467.543 153.361 451.165 172.665 427.277 192.832C424.034 195.557 420.54 198.419 416.593 201.53C413.825 203.71 410.944 205.8 407.995 207.957C397.583 215.543 385.968 224.014 378.573 236.959C393.228 194.581 398.082 132.15 399.443 83.7535Z" fill="white"/>
</svg>
