<svg width="19" height="24" viewBox="0 0 19 24" fill="none" xmlns="http://www.w3.org/2000/svg">
<path d="M8.25 22C8.25 22.6904 8.80964 23.25 9.5 23.25C10.1904 23.25 10.75 22.6904 10.75 22L8.25 22ZM10.3839 1.11612C9.89573 0.627962 9.10427 0.627962 8.61612 1.11612L0.661166 9.07107C0.17301 9.55922 0.17301 10.3507 0.661166 10.8388C1.14932 11.327 1.94078 11.327 2.42893 10.8388L9.5 3.76777L16.5711 10.8388C17.0592 11.327 17.8507 11.327 18.3388 10.8388C18.827 10.3507 18.827 9.55922 18.3388 9.07107L10.3839 1.11612ZM10.75 22L10.75 2L8.25 2L8.25 22L10.75 22Z" fill="#30B0EB"/>
</svg>
