<svg width="71" height="71" viewBox="0 0 71 71" fill="none" xmlns="http://www.w3.org/2000/svg">
<g filter="url(#filter0_b_1_187)">
<rect width="71" height="71" rx="10" fill="#0EA5E9"/>
</g>
<path d="M35.9998 41.9584C35.7776 41.9584 35.5693 41.9234 35.3748 41.8534C35.1804 41.7845 34.9998 41.6667 34.8332 41.5001L28.8332 35.5001C28.5276 35.1945 28.3748 34.8056 28.3748 34.3334C28.3748 33.8612 28.5276 33.4723 28.8332 33.1667C29.1387 32.8612 29.5343 32.7012 30.0198 32.6867C30.5065 32.6734 30.9026 32.8195 31.2082 33.1251L34.3332 36.2501V24.3334C34.3332 23.8612 34.4932 23.4651 34.8132 23.1451C35.1321 22.8262 35.5276 22.6667 35.9998 22.6667C36.4721 22.6667 36.8682 22.8262 37.1882 23.1451C37.5071 23.4651 37.6665 23.8612 37.6665 24.3334V36.2501L40.7915 33.1251C41.0971 32.8195 41.4932 32.6734 41.9798 32.6867C42.4654 32.7012 42.8609 32.8612 43.1665 33.1667C43.4721 33.4723 43.6248 33.8612 43.6248 34.3334C43.6248 34.8056 43.4721 35.1945 43.1665 35.5001L37.1665 41.5001C36.9998 41.6667 36.8193 41.7845 36.6248 41.8534C36.4304 41.9234 36.2221 41.9584 35.9998 41.9584ZM25.9998 49.3334C25.0832 49.3334 24.2987 49.0073 23.6465 48.3551C22.9932 47.7017 22.6665 46.9167 22.6665 46.0001V42.6667C22.6665 42.1945 22.8259 41.7984 23.1448 41.4784C23.4648 41.1595 23.8609 41.0001 24.3332 41.0001C24.8054 41.0001 25.2015 41.1595 25.5215 41.4784C25.8404 41.7984 25.9998 42.1945 25.9998 42.6667V46.0001H45.9998V42.6667C45.9998 42.1945 46.1598 41.7984 46.4798 41.4784C46.7987 41.1595 47.1943 41.0001 47.6665 41.0001C48.1387 41.0001 48.5343 41.1595 48.8532 41.4784C49.1732 41.7984 49.3332 42.1945 49.3332 42.6667V46.0001C49.3332 46.9167 49.0071 47.7017 48.3548 48.3551C47.7015 49.0073 46.9165 49.3334 45.9998 49.3334H25.9998Z" fill="white"/>
<defs>
<filter id="filter0_b_1_187" x="-10" y="-10" width="91" height="91" filterUnits="userSpaceOnUse" color-interpolation-filters="sRGB">
<feFlood flood-opacity="0" result="BackgroundImageFix"/>
<feGaussianBlur in="BackgroundImageFix" stdDeviation="5"/>
<feComposite in2="SourceAlpha" operator="in" result="effect1_backgroundBlur_1_187"/>
<feBlend mode="normal" in="SourceGraphic" in2="effect1_backgroundBlur_1_187" result="shape"/>
</filter>
</defs>
</svg>
